<svg width="26" height="26" viewBox="0 0 26 26" fill="none" xmlns="http://www.w3.org/2000/svg">
<path d="M1.26043 16.2329L1.92041 18.6992C2.69145 21.5779 3.07825 23.0179 3.95269 23.951C4.64286 24.6873 5.53574 25.2026 6.51858 25.4318C7.7645 25.7229 9.20446 25.3374 12.0844 24.5663C14.9618 23.7953 16.4017 23.4098 17.3349 22.5353C17.4115 22.4625 17.4881 22.3872 17.5596 22.3106C17.1248 22.2711 16.6927 22.2072 16.2651 22.1192C15.3766 21.943 14.3209 21.6596 13.0724 21.3251L12.9359 21.2881L12.9039 21.2805C11.5457 20.9154 10.4108 20.6115 9.50446 20.2847C8.55087 19.9401 7.68536 19.515 6.94878 18.8256C5.9356 17.8764 5.22659 16.6481 4.91139 15.2959C4.68161 14.3143 4.74799 13.3517 4.92671 12.3547C5.09777 11.3986 5.40414 10.2522 5.77179 8.87994L6.45475 6.33448L6.47773 6.24512C4.02673 6.9051 2.73613 7.29573 1.87573 8.10124C1.13851 8.79193 0.622722 9.68577 0.393641 10.6697C0.102585 11.9143 0.488107 13.3543 1.26043 16.2329Z" fill="#091414"/>
<path fill-rule="evenodd" clip-rule="evenodd" d="M24.3343 11.1252L23.673 13.5915C22.9007 16.4702 22.5152 17.9101 21.6407 18.8433C20.9507 19.5801 20.0578 20.0958 19.0748 20.3254C18.951 20.3548 18.8259 20.3765 18.6983 20.3918C17.5302 20.536 16.1043 20.1543 13.5103 19.4599C10.6317 18.6876 9.19171 18.302 8.25854 17.4276C7.52153 16.7373 7.00577 15.8439 6.77645 14.8604C6.4854 13.6145 6.87092 12.1758 7.64324 9.29718L8.30322 6.83087L8.6147 5.67558C9.19554 3.54883 9.58616 2.37822 10.3355 1.57782C11.0257 0.8415 11.9186 0.326205 12.9014 0.0970103C14.1473 -0.194046 15.5873 0.191476 18.4672 0.963795C21.3446 1.73484 22.7845 2.12036 23.7177 2.99353C24.4549 3.68422 24.9707 4.57806 25.1998 5.56197C25.4908 6.80789 25.1053 8.24658 24.3343 11.1252ZM11.8508 9.96355C11.8834 9.84208 11.9396 9.72822 12.0162 9.62847C12.0928 9.52873 12.1883 9.44505 12.2972 9.38222C12.4061 9.31939 12.5264 9.27864 12.6511 9.2623C12.7758 9.24595 12.9025 9.25434 13.0239 9.28697L19.1897 10.9401C19.3144 10.9697 19.4319 11.024 19.5352 11.0997C19.6385 11.1755 19.7255 11.2713 19.7911 11.3813C19.8567 11.4913 19.8996 11.6134 19.9172 11.7403C19.9348 11.8672 19.9267 11.9964 19.8935 12.1201C19.8602 12.2438 19.8025 12.3596 19.7237 12.4607C19.6449 12.5617 19.5466 12.6458 19.4347 12.7082C19.3227 12.7705 19.1994 12.8097 19.0721 12.8235C18.9447 12.8374 18.8158 12.8255 18.6931 12.7886L12.5274 11.1367C12.2823 11.0709 12.0734 10.9105 11.9466 10.6908C11.8197 10.471 11.7853 10.2087 11.8508 9.96355ZM10.8602 13.6643C10.926 13.4193 11.0864 13.2104 11.3061 13.0835C11.5258 12.9567 11.7869 12.9222 12.0321 12.9877L15.7315 13.9796C15.8568 14.0085 15.9749 14.0624 16.0789 14.1379C16.1829 14.2135 16.2707 14.3092 16.3369 14.4194C16.4031 14.5296 16.4464 14.6519 16.4643 14.7792C16.4822 14.9065 16.4743 15.0361 16.441 15.1603C16.4077 15.2845 16.3498 15.4007 16.2707 15.502C16.1915 15.6033 16.0928 15.6876 15.9803 15.7499C15.8679 15.8122 15.7441 15.8513 15.6162 15.8647C15.4884 15.8781 15.3592 15.8657 15.2362 15.8281L11.5367 14.8375C11.4153 14.8049 11.3014 14.7487 11.2017 14.6721C11.1019 14.5955 11.0183 14.5 10.9554 14.391C10.8926 14.2821 10.8518 14.1618 10.8355 14.0371C10.8192 13.9124 10.8275 13.7858 10.8602 13.6643Z" fill="#091414"/>
</svg>
