<svg width="20" height="20" viewBox="0 0 20 20" fill="none" xmlns="http://www.w3.org/2000/svg">
<path d="M4.58333 2.5C3.43333 2.5 2.5 3.43333 2.5 4.58333V15.4167C2.5 16.5667 3.43333 17.5 4.58333 17.5H15.4167C16.5667 17.5 17.5 16.5667 17.5 15.4167V12.9167C17.5 12.5851 17.6317 12.2672 17.8661 12.0328C18.1005 11.7984 18.4185 11.6667 18.75 11.6667C19.0815 11.6667 19.3995 11.7984 19.6339 12.0328C19.8683 12.2672 20 12.5851 20 12.9167V15.4167C20 16.6322 19.5171 17.798 18.6576 18.6576C17.798 19.5171 16.6322 20 15.4167 20H4.58333C3.36776 20 2.20197 19.5171 1.34243 18.6576C0.482886 17.798 0 16.6322 0 15.4167V4.58333C0 3.36776 0.482886 2.20197 1.34243 1.34243C2.20197 0.482886 3.36776 0 4.58333 0H7.08333C7.41485 6.98627e-09 7.7328 0.131696 7.96722 0.366116C8.20164 0.600537 8.33333 0.918479 8.33333 1.25C8.33333 1.58152 8.20164 1.89946 7.96722 2.13388C7.7328 2.3683 7.41485 2.5 7.08333 2.5H4.58333ZM10 1.25C10 0.918479 10.1317 0.600537 10.3661 0.366116C10.6005 0.131696 10.9185 0 11.25 0H18.75C19.0815 0 19.3995 0.131696 19.6339 0.366116C19.8683 0.600537 20 0.918479 20 1.25V8.75C20 9.08152 19.8683 9.39946 19.6339 9.63388C19.3995 9.8683 19.0815 10 18.75 10C18.4185 10 18.1005 9.8683 17.8661 9.63388C17.6317 9.39946 17.5 9.08152 17.5 8.75V4.26833L12.1333 9.635C12.018 9.75433 11.88 9.84949 11.7275 9.91493C11.5749 9.98037 11.4109 10.0148 11.2449 10.0161C11.0789 10.0175 10.9143 9.9858 10.7608 9.92287C10.6072 9.85995 10.4676 9.76707 10.3503 9.64965C10.233 9.53223 10.1403 9.39262 10.0775 9.23897C10.0147 9.08532 9.98317 8.92071 9.98469 8.75473C9.98621 8.58876 10.0208 8.42475 10.0864 8.27228C10.1519 8.11981 10.2472 7.98192 10.3667 7.86667L15.7333 2.5H11.25C10.9185 2.5 10.6005 2.3683 10.3661 2.13388C10.1317 1.89946 10 1.58152 10 1.25Z" fill="black"/>
</svg>
