<svg width="40" height="40" viewBox="0 0 40 40" fill="none" xmlns="http://www.w3.org/2000/svg">
<path d="M20 0C17.3736 0 14.7728 0.530159 12.3463 1.56021C9.91982 2.59025 7.71504 4.10002 5.85786 6.0033C2.10714 9.84714 0 15.0605 0 20.4965C0 29.556 5.74 37.2422 13.68 39.9683C14.68 40.1322 15 39.4968 15 38.9434V35.4795C9.46 36.7093 8.28 32.733 8.28 32.733C7.36 30.3554 6.06 29.72 6.06 29.72C4.24 28.4492 6.2 28.4902 6.2 28.4902C8.2 28.6337 9.26 30.6013 9.26 30.6013C11 33.7168 13.94 32.7945 15.08 32.3025C15.26 30.9703 15.78 30.0684 16.34 29.556C11.9 29.0436 7.24 27.2809 7.24 19.4717C7.24 17.1966 8 15.3724 9.3 13.9172C9.1 13.4047 8.4 11.2731 9.5 8.50606C9.5 8.50606 11.18 7.95266 15 10.5967C16.58 10.1458 18.3 9.92033 20 9.92033C21.7 9.92033 23.42 10.1458 25 10.5967C28.82 7.95266 30.5 8.50606 30.5 8.50606C31.6 11.2731 30.9 13.4047 30.7 13.9172C32 15.3724 32.76 17.1966 32.76 19.4717C32.76 27.3014 28.08 29.0231 23.62 29.5355C24.34 30.1709 25 31.4212 25 33.3274V38.9434C25 39.4968 25.32 40.1527 26.34 39.9683C34.28 37.2217 40 29.556 40 20.4965C40 17.8049 39.4827 15.1396 38.4776 12.6529C37.4725 10.1661 35.9993 7.90658 34.1421 6.0033C32.285 4.10002 30.0802 2.59025 27.6537 1.56021C25.2272 0.530159 22.6264 0 20 0Z" fill="black"/>
</svg>
