<svg width="26" height="25" viewBox="0 0 26 25" fill="none" xmlns="http://www.w3.org/2000/svg">
<path d="M24.7793 12.571L13.4204 1.22042C13.3387 1.13848 13.2415 1.07346 13.1346 1.0291C13.0276 0.984747 12.913 0.961914 12.7972 0.961914C12.6814 0.961914 12.5668 0.984747 12.4598 1.0291C12.3529 1.07346 12.2558 1.13848 12.174 1.22042L0.815134 12.571C0.484213 12.9019 0.296692 13.3514 0.296692 13.8202C0.296692 14.7937 1.08814 15.5851 2.0616 15.5851H3.25843V23.6844C3.25843 24.1725 3.65278 24.5669 4.14088 24.5669H11.0323V18.3897H14.1209V24.5669H21.4535C21.9416 24.5669 22.336 24.1725 22.336 23.6844V15.5851H23.5328C24.0016 15.5851 24.4511 15.4004 24.782 15.0667C25.4687 14.3773 25.4687 13.2604 24.7793 12.571Z" fill="#091414"/>
</svg>
