<svg width="75" height="47" viewBox="0 0 75 47" fill="none" xmlns="http://www.w3.org/2000/svg">
<path d="M13.6598 40.8708H0.515464L0 36.5925C0.446735 36.0083 1.39175 35.4413 2.83505 34.8915V11.3348C1.42612 10.8193 0.4811 10.2351 0 9.58218L0.515464 5.30383H12.0103C17.543 5.30383 21.9244 6.85023 25.1546 9.94301C28.4192 13.0358 30.0515 17.5891 30.0515 23.6028C30.0515 29.5822 28.5739 33.9636 25.6186 36.7471C22.6976 39.4963 18.7113 40.8708 13.6598 40.8708ZM10.2577 35.2523H13.9691C16.5464 35.2523 18.5739 34.4791 20.0515 32.9327C21.5636 31.3519 22.3196 28.3107 22.3196 23.809C22.3196 15.2179 19.0722 10.9224 12.5773 10.9224H10.2577V35.2523Z" fill="black"/>
<path fill-rule="evenodd" clip-rule="evenodd" d="M50.2808 34.5535C56.6419 28.1923 56.6419 17.8789 50.2808 11.5178C43.9196 5.15671 33.6062 5.1567 27.2451 11.5178C20.884 17.8789 20.884 28.1923 27.2451 34.5535C33.6062 40.9146 43.9196 40.9146 50.2808 34.5535ZM44.954 29.2264C48.3731 25.8073 48.3731 20.2639 44.954 16.8448C41.5349 13.4257 35.9914 13.4257 32.5723 16.8448C29.1532 20.2639 29.1532 25.8073 32.5723 29.2264C35.9914 32.6455 41.5349 32.6455 44.954 29.2264Z" fill="#B10000"/>
<rect x="27.332" y="15.9807" width="7.62887" height="24.9941" transform="rotate(-45 27.332 15.9807)" fill="#B10000"/>
<path d="M58.608 40.8708H45.4637L44.9482 36.5925C45.395 36.0083 46.34 35.4413 47.7833 34.8915V11.3348C46.3744 10.8193 45.4293 10.2351 44.9482 9.58218L45.4637 5.30383H56.9586C62.4912 5.30383 66.8726 6.85023 70.1029 9.94301C73.3675 13.0358 74.9998 17.5891 74.9998 23.6028C74.9998 29.5822 73.5221 33.9636 70.5668 36.7471C67.6458 39.4963 63.6596 40.8708 58.608 40.8708ZM55.206 35.2523H58.9173C61.4946 35.2523 63.5221 34.4791 64.9998 32.9327C66.5118 31.3519 67.2678 28.3107 67.2678 23.809C67.2678 15.2179 64.0204 10.9224 57.5256 10.9224H55.206V35.2523Z" fill="black"/>
</svg>
