<svg width="26" height="26" viewBox="0 0 26 26" fill="none" xmlns="http://www.w3.org/2000/svg">
<path d="M24.4038 0.264161H18.0199C16.6499 0.264161 15.3106 0.765869 14.1583 1.71235L12.7967 2.82607L11.4351 1.71235C10.2839 0.766051 8.94311 0.263227 7.57348 0.264161H1.18955C0.695687 0.264161 0.296692 0.772986 0.296692 1.40279V21.6134C0.296692 22.2432 0.695687 22.7521 1.18955 22.7521H7.57348C8.94345 22.7521 10.2827 23.2538 11.4351 24.2003L12.6739 25.2179C12.7102 25.2464 12.752 25.2642 12.7939 25.2642C12.8358 25.2642 12.8776 25.2499 12.9139 25.2179L14.1527 24.2003C15.3079 23.2538 16.6499 22.7521 18.0199 22.7521H24.4038C24.8977 22.7521 25.2967 22.2432 25.2967 21.6134V1.40279C25.2967 0.772986 24.8977 0.264161 24.4038 0.264161ZM9.7833 14.2301C9.7833 14.376 9.69401 14.497 9.5852 14.497H4.40104C4.29223 14.497 4.20294 14.376 4.20294 14.2301V12.6289C4.20294 12.4831 4.29223 12.3621 4.40104 12.3621H9.58241C9.69122 12.3621 9.78051 12.4831 9.78051 12.6289V14.2301H9.7833ZM9.7833 9.24865C9.7833 9.39453 9.69401 9.51551 9.5852 9.51551H4.40104C4.29223 9.51551 4.20294 9.39453 4.20294 9.24865V7.64745C4.20294 7.50156 4.29223 7.38059 4.40104 7.38059H9.58241C9.69122 7.38059 9.78051 7.50156 9.78051 7.64745V9.24865H9.7833ZM21.3904 14.2301C21.3904 14.376 21.3012 14.497 21.1923 14.497H16.0082C15.8994 14.497 15.8101 14.376 15.8101 14.2301V12.6289C15.8101 12.4831 15.8994 12.3621 16.0082 12.3621H21.1895C21.2984 12.3621 21.3877 12.4831 21.3877 12.6289V14.2301H21.3904ZM21.3904 9.24865C21.3904 9.39453 21.3012 9.51551 21.1923 9.51551H16.0082C15.8994 9.51551 15.8101 9.39453 15.8101 9.24865V7.64745C15.8101 7.50156 15.8994 7.38059 16.0082 7.38059H21.1895C21.2984 7.38059 21.3877 7.50156 21.3877 7.64745V9.24865H21.3904Z" fill="#091414"/>
</svg>
