<svg width="26" height="26" viewBox="0 0 26 26" fill="none" xmlns="http://www.w3.org/2000/svg">
<path d="M17.7968 10.2641C17.7968 11.5902 17.27 12.8619 16.3323 13.7996C15.3946 14.7373 14.1229 15.264 12.7968 15.264C11.4708 15.264 10.199 14.7373 9.26132 13.7996C8.32365 12.8619 7.79688 11.5902 7.79688 10.2641C7.79688 8.93804 8.32365 7.66628 9.26132 6.72861C10.199 5.79094 11.4708 5.26416 12.7968 5.26416C14.1229 5.26416 15.3946 5.79094 16.3323 6.72861C17.27 7.66628 17.7968 8.93804 17.7968 10.2641Z" fill="#091414"/>
<path fill-rule="evenodd" clip-rule="evenodd" d="M12.2868 25.2539C5.62 24.9864 0.296936 19.4964 0.296936 12.764C0.296936 5.86035 5.89313 0.26416 12.7968 0.26416C19.7005 0.26416 25.2967 5.86035 25.2967 12.764C25.2967 19.6677 19.7005 25.2639 12.7968 25.2639C12.7397 25.2643 12.6826 25.2643 12.6256 25.2639C12.5124 25.2639 12.3993 25.2601 12.2868 25.2539ZM4.77564 20.6514C4.68218 20.383 4.65037 20.0971 4.68256 19.8147C4.71476 19.5323 4.81014 19.2608 4.96162 19.0204C5.1131 18.7799 5.31679 18.5767 5.55758 18.4257C5.79837 18.2747 6.07006 18.1799 6.35249 18.1483C11.2249 17.609 14.3987 17.6577 19.2474 18.1596C19.5302 18.189 19.8025 18.2826 20.0437 18.4333C20.2849 18.5839 20.4885 18.7876 20.6391 19.0288C20.7896 19.27 20.8831 19.5424 20.9125 19.8252C20.9419 20.108 20.9064 20.3938 20.8086 20.6608C22.8866 18.5583 24.0504 15.7202 24.0467 12.764C24.0467 6.55097 19.0099 1.51415 12.7968 1.51415C6.58374 1.51415 1.54692 6.55097 1.54692 12.764C1.54692 15.8365 2.77878 18.6215 4.77564 20.6514Z" fill="#091414"/>
</svg>
