<svg width="25" height="25" viewBox="0 0 25 25" fill="none" xmlns="http://www.w3.org/2000/svg">
<mask id="mask0_84_991" style="mask-type:luminance" maskUnits="userSpaceOnUse" x="0" y="0" width="25" height="25">
<path d="M12.4167 2L9.29167 5.125H5.125V9.29167L2 12.4167L5.125 15.5417V19.7083H9.29167L12.4167 22.8333L15.5417 19.7083H19.7083V15.5417L22.8333 12.4167L19.7083 9.29167V5.125H15.5417L12.4167 2Z" fill="white" stroke="white" stroke-width="4" stroke-linejoin="round"/>
<path d="M12.4166 15.5415C13.2454 15.5415 14.0403 15.2123 14.6263 14.6262C15.2124 14.0402 15.5416 13.2453 15.5416 12.4165C15.5416 11.5877 15.2124 10.7928 14.6263 10.2068C14.0403 9.62074 13.2454 9.2915 12.4166 9.2915C11.5878 9.2915 10.793 9.62074 10.2069 10.2068C9.62087 10.7928 9.29163 11.5877 9.29163 12.4165C9.29163 13.2453 9.62087 14.0402 10.2069 14.6262C10.793 15.2123 11.5878 15.5415 12.4166 15.5415Z" fill="black" stroke="black" stroke-width="4" stroke-linejoin="round"/>
</mask>
<g mask="url(#mask0_84_991)">
<path d="M-0.083374 -0.0834961H24.9166V24.9165H-0.083374V-0.0834961Z" fill="#F7EFDC"/>
</g>
</svg>
