<svg width="26" height="26" viewBox="0 0 26 26" fill="none" xmlns="http://www.w3.org/2000/svg">
<path fill-rule="evenodd" clip-rule="evenodd" d="M8.10919 15.8892H23.7342C24.1486 15.8892 24.546 16.0538 24.839 16.3468C25.1321 16.6398 25.2967 17.0373 25.2967 17.4517C25.2967 17.8661 25.1321 18.2635 24.839 18.5565C24.546 18.8495 24.1486 19.0142 23.7342 19.0142H8.10919C7.69479 19.0142 7.29736 18.8495 7.00434 18.5565C6.71131 18.2635 6.54669 17.8661 6.54669 17.4517C6.54669 17.0373 6.71131 16.6398 7.00434 16.3468C7.29736 16.0538 7.69479 15.8892 8.10919 15.8892ZM8.10919 22.1392H23.7342C24.1486 22.1392 24.546 22.3038 24.839 22.5968C25.1321 22.8898 25.2967 23.2873 25.2967 23.7017C25.2967 24.1161 25.1321 24.5135 24.839 24.8065C24.546 25.0995 24.1486 25.2642 23.7342 25.2642H8.10919C7.69479 25.2642 7.29736 25.0995 7.00434 24.8065C6.71131 24.5135 6.54669 24.1161 6.54669 23.7017C6.54669 23.2873 6.71131 22.8898 7.00434 22.5968C7.29736 22.3038 7.69479 22.1392 8.10919 22.1392ZM17.4842 9.63916H23.7342C24.1486 9.63916 24.546 9.80378 24.839 10.0968C25.1321 10.3898 25.2967 10.7873 25.2967 11.2017C25.2967 11.6161 25.1321 12.0135 24.839 12.3065C24.546 12.5995 24.1486 12.7642 23.7342 12.7642H17.4842C17.0698 12.7642 16.6724 12.5995 16.3793 12.3065C16.0863 12.0135 15.9217 11.6161 15.9217 11.2017C15.9217 10.7873 16.0863 10.3898 16.3793 10.0968C16.6724 9.80378 17.0698 9.63916 17.4842 9.63916ZM6.14513 12.6298L0.296692 6.78291L2.50607 4.57197L6.14513 8.21104L14.0904 0.26416L16.3014 2.47354L6.14513 12.6298Z" fill="black"/>
</svg>
