<svg width="132" height="132" viewBox="0 0 132 132" fill="none" xmlns="http://www.w3.org/2000/svg">
<path d="M132.005 66.0041C132.005 84.6908 124.227 101.553 111.733 113.537C99.966 124.815 84.0183 131.764 66.4464 131.812H66.1243C47.2639 131.771 30.2676 123.779 18.3086 111.006C7.27471 99.234 0.52417 83.408 0.52417 66.0041C0.52417 29.6667 29.9592 0.203018 66.2682 0.203018C102.577 0.203018 132.005 29.6667 132.005 66.0041Z" fill="#FFB240"/>
<path d="M111.733 113.537C99.9661 124.815 84.0183 131.764 66.4464 131.812H66.1243C47.2639 131.771 30.2677 123.779 18.3086 111.006C21.7901 101.642 28.102 96.0509 34.2494 92.4769C34.9485 92.0653 35.6749 91.6811 36.4151 91.3244C37.3197 90.8854 38.2449 90.4806 39.1701 90.1102C40.6847 89.4996 42.213 88.9714 43.6796 88.5049C46.1263 87.7298 48.4221 87.1192 50.2451 86.5841C52.7123 85.8707 54.3229 85.2807 54.3229 84.5879V66.5941C54.3229 63.562 54.3229 61.3874 54.3229 61.3874H74.876C74.876 61.3874 74.876 63.0269 74.876 65.4485V84.5879C74.876 85.4591 77.3706 86.1657 80.9138 87.1672C82.867 87.7229 85.1354 88.3677 87.4793 89.1841C88.6786 89.5957 89.9054 90.0622 91.1116 90.5835C92.119 91.0157 93.1196 91.489 94.0928 92.0104C94.6205 92.2917 95.1413 92.5866 95.6553 92.8953C102.104 96.8124 108.615 103.014 111.733 113.537Z" fill="#FFD7B5"/>
<path d="M111.733 113.537C109.903 115.293 107.971 116.94 105.949 118.476C104.291 119.739 102.563 120.918 100.788 122.016C97.1973 124.239 93.38 126.125 89.3777 127.628C82.2433 130.317 74.5128 131.785 66.4464 131.812H66.1243C58.0374 131.792 50.3 130.317 43.1519 127.628C39.1496 126.118 35.3323 124.239 31.748 122.016C29.973 120.918 28.2596 119.739 26.6011 118.476C24.319 116.754 22.1602 114.875 20.1247 112.865C19.5079 112.261 18.9048 111.637 18.3086 111.006C18.521 110.429 18.7472 109.874 18.9802 109.325C19.8643 107.267 20.8854 105.401 22.0162 103.714C22.8661 102.438 23.7776 101.258 24.737 100.174C26.6902 97.9512 28.8216 96.1127 31.001 94.5623C32.0769 93.794 33.1666 93.108 34.2494 92.4769C34.9485 92.0653 35.6749 91.6811 36.4151 91.3244C36.6344 91.2215 36.8537 91.1186 37.073 91.0226C37.7652 90.6933 38.4642 90.3914 39.1701 90.1102C39.5402 89.9593 39.9103 89.8152 40.2804 89.678C41.4249 89.2458 42.5694 88.8548 43.6796 88.5049C44.036 88.3883 44.3924 88.2786 44.7419 88.1757C46.7842 87.5514 48.6894 87.0438 50.2451 86.5841L59.8192 91.0226L66.1174 93.9449L72.4979 91.0226L80.9138 87.1672C82.4284 87.5994 84.1349 88.0865 85.9167 88.6627C86.4307 88.8274 86.9516 88.9989 87.4793 89.1841C88.3634 89.4859 89.268 89.8221 90.1658 90.1856C90.481 90.316 90.7963 90.4463 91.1116 90.5835C91.4405 90.7276 91.7695 90.8716 92.0984 91.0226C92.7701 91.3313 93.4417 91.6605 94.0928 92.0104C94.6205 92.2916 95.1413 92.5866 95.6553 92.8953C96.5051 93.4098 97.3549 93.9655 98.191 94.5623C100.37 96.1058 102.502 97.9512 104.455 100.174C105.414 101.258 106.326 102.438 107.176 103.714C108.307 105.401 109.335 107.267 110.212 109.325C110.698 110.443 111.137 111.623 111.528 112.865C111.596 113.084 111.665 113.311 111.733 113.537Z" fill="#451378"/>
<path d="M100.789 122.016C97.1974 124.239 93.3801 126.125 89.3777 127.628H43.152C39.1497 126.118 35.3323 124.239 31.748 122.016H100.789Z" fill="#6A9DC4"/>
<path d="M111.733 113.537C109.903 115.293 107.971 116.94 105.949 118.476H26.6012C24.319 116.754 22.1602 114.875 20.1248 112.865H111.528C111.596 113.084 111.665 113.311 111.733 113.537Z" fill="#6A9DC4"/>
<path d="M110.212 109.325H18.9802C19.8643 107.267 20.8855 105.401 22.0163 103.714H107.176C108.307 105.401 109.335 107.267 110.212 109.325Z" fill="#6A9DC4"/>
<path d="M104.456 100.174H24.7371C26.6903 97.9512 28.8216 96.1127 31.001 94.5623H98.1911C100.37 96.1058 102.502 97.9512 104.456 100.174Z" fill="#6A9DC4"/>
<path d="M50.2451 86.5841L59.8192 91.0226H37.073C37.7652 90.6933 38.4642 90.3914 39.1701 90.1102C40.6847 89.4996 42.213 88.9714 43.6796 88.5049C44.036 88.3883 44.3924 88.2786 44.7419 88.1757C46.7842 87.5514 48.6894 87.0438 50.2451 86.5841Z" fill="#6A9DC4"/>
<path d="M92.0983 91.0226H72.4978L80.9137 87.1672C82.4283 87.5994 84.1348 88.0865 85.9166 88.6627C86.4306 88.8274 86.9515 88.9989 87.4792 89.1841C88.6785 89.5957 89.9053 90.0622 91.1115 90.5835C91.4404 90.7276 91.7694 90.8716 92.0983 91.0226Z" fill="#6A9DC4"/>
<path opacity="0.3" d="M90.1657 90.1856L74.8759 107.466L66.2681 100.174L58.7432 107.466L40.2803 89.678C41.4248 89.2458 42.5693 88.8548 43.6795 88.5049C44.0359 88.3883 44.3923 88.2786 44.7418 88.1757C46.7841 87.5514 48.6893 87.0438 50.245 86.5841L59.8191 91.0226L66.1173 93.9449L72.4978 91.0226L80.9137 87.1672C82.4283 87.5994 84.1348 88.0865 85.9166 88.6627C86.4306 88.8274 86.9515 88.9989 87.4792 89.1841C88.3633 89.4859 89.2679 89.8221 90.1657 90.1856Z" fill="#46134B"/>
<path d="M74.8759 65.4485V78.5511C72.5458 80.369 69.4069 82.0017 65.4937 82.2555C59.7917 82.6191 56.2348 80.2181 54.3228 78.2698V66.5941L74.403 64.7145L74.8759 65.4485Z" fill="#FFC6A6"/>
<path d="M39.3715 25.2928C39.3715 25.2928 34.4255 51.2147 41.5742 63.6498C45.1482 69.8677 55.2226 76.4938 64.5925 76.6687C73.9624 76.8443 82.627 70.5688 87.1146 65.113C96.0897 54.2015 89.3385 25.2928 89.3385 25.2928C89.3385 25.2928 69.2644 10.9897 39.3715 25.2928Z" fill="#FFD7B5"/>
<path d="M89.3865 42.4963C89.3865 42.4963 94.9397 34.6231 98.9818 41.5338C101.855 46.4449 96.479 57.0669 89.649 52.4927L89.3865 42.4963Z" fill="#FFD7B5"/>
<path d="M93.4217 42.5779L91.7742 50.6199C91.7742 50.6199 94.1667 51.5439 95.0576 49.7603C95.9485 47.9767 94.7506 46.7186 94.7506 46.7186C94.7506 46.7186 97.9093 46.3715 97.7756 43.8292C97.6413 41.2876 93.8953 40.2675 93.4217 42.5779Z" fill="#FFAC7E"/>
<path d="M39.9233 42.5642C39.9233 42.5642 34.3701 34.691 30.328 41.6018C27.4551 46.5128 32.8308 57.1348 39.6608 52.5606L39.9233 42.5642Z" fill="#FFD7B5"/>
<path d="M36.058 42.5779L37.7055 50.6199C37.7055 50.6199 35.313 51.5439 34.4221 49.7603C33.5312 47.9767 34.7291 46.7186 34.7291 46.7186C34.7291 46.7186 31.5704 46.3715 31.7041 43.8292C31.8391 41.2876 35.5844 40.2675 36.058 42.5779Z" fill="#FFAC7E"/>
<path d="M37.7034 23.3487C37.7034 23.3487 37.3334 61.5945 37.896 69.6852C38.4587 77.7759 61.5126 84.2113 64.4835 84.2113C67.4544 84.2113 91.5871 78.1436 91.5871 68.3983C91.5871 58.653 91.5871 23.3487 91.5871 23.3487H86.2189V50.8593L76.1445 55.5763C76.1445 55.5763 74.5086 50.1733 63.9572 50.1733C53.4058 50.1733 52.2421 55.4349 52.2421 55.4349L42.9606 50.8593V22.6133L37.7034 23.3487Z" fill="#46134B"/>
<path d="M56.274 41.3644C56.274 42.8606 55.0706 44.0734 53.5868 44.0734C52.1031 44.0734 50.8997 42.8606 50.8997 41.3644C50.8997 39.8682 52.1024 38.6554 53.5868 38.6554C55.0713 38.6547 56.274 39.8682 56.274 41.3644Z" fill="#46134B"/>
<path d="M78.3007 41.3644C78.3007 42.8606 77.0979 44.0734 75.6135 44.0734C74.1297 44.0734 72.9263 42.8606 72.9263 41.3644C72.9263 39.8682 74.129 38.6554 75.6135 38.6554C77.0972 38.6547 78.3007 39.8682 78.3007 41.3644Z" fill="#46134B"/>
<path d="M51.5684 49.9133C50.4314 51.6565 47.9197 52.031 45.9583 50.7496C43.9968 49.4681 43.3293 47.0157 44.4663 45.2725C45.6033 43.5294 48.115 43.1549 50.0764 44.4363C52.0378 45.7178 52.7061 48.1702 51.5684 49.9133Z" fill="#FF918B"/>
<path d="M77.6592 49.9133C78.7961 51.6565 81.3079 52.031 83.2693 50.7496C85.2307 49.4681 85.8989 47.0157 84.7613 45.2725C83.6243 43.5294 81.1126 43.1549 79.1511 44.4363C77.1897 45.7178 76.5222 48.1702 77.6592 49.9133Z" fill="#FF918B"/>
<path d="M47.7429 38.3405C47.427 38.3405 47.1103 38.2328 46.8533 38.0119C46.2824 37.5214 46.2098 36.6674 46.6943 36.0918C46.8451 35.9128 50.4746 31.7199 57.6398 33.391C58.3772 33.5625 58.8357 34.3007 58.6637 35.0381C58.4917 35.7762 57.7529 36.2359 57.0182 36.063C51.5499 34.787 48.8929 37.743 48.7825 37.8692C48.5105 38.18 48.1274 38.3405 47.7429 38.3405Z" fill="#46134B"/>
<path d="M77.0958 37.1037C75.1384 37.1037 72.9049 36.5199 70.7729 34.7726C70.1876 34.2924 70.1012 33.4281 70.581 32.8422C71.0614 32.2564 71.9249 32.1706 72.5102 32.6501C76.4975 35.9176 80.4457 33.5193 80.4854 33.4946C81.1283 33.0933 81.9733 33.2895 82.3735 33.9323C82.7744 34.5757 82.5784 35.4216 81.9363 35.8222C80.9371 36.4458 79.1716 37.1037 77.0958 37.1037Z" fill="#46134B"/>
<path d="M60.0427 54.3339L68.4449 53.1382C68.4449 53.1382 68.1358 56.6485 64.7263 57.1335C61.3168 57.6185 60.0427 54.3339 60.0427 54.3339Z" fill="white"/>
<path d="M45.8241 56.4468C44.5384 55.8952 41.4153 68.9505 43.252 70.6052C45.0894 72.2598 47.1097 56.9983 45.8241 56.4468Z" fill="#5E3162"/>
<path d="M51.537 59.6895C50.202 59.271 48.4146 72.5753 50.4096 74.0358C52.4046 75.4956 52.872 60.108 51.537 59.6895Z" fill="#5E3162"/>
<path d="M59.0503 63.4934C57.6995 63.1305 56.4618 76.4972 58.515 77.874C60.5683 79.2501 60.4017 63.8563 59.0503 63.4934Z" fill="#5E3162"/>
<path d="M83.2206 57.1328C84.5063 56.5812 87.6294 69.6365 85.7927 71.2911C83.9553 72.9458 81.9349 57.6843 83.2206 57.1328Z" fill="#5E3162"/>
<path d="M77.5077 60.3755C78.8427 59.957 80.6301 73.2613 78.6351 74.7218C76.64 76.1816 76.1726 60.794 77.5077 60.3755Z" fill="#5E3162"/>
<path d="M69.9944 64.1794C71.3452 63.8165 72.5829 77.1832 70.5296 78.56C68.4764 79.9368 68.6429 64.5423 69.9944 64.1794Z" fill="#5E3162"/>
<path d="M63.8276 50.8099C62.9559 50.8099 62.1191 50.6672 61.6256 50.2241C61.3659 49.9915 61.0787 49.5641 61.1843 48.8507C62.0087 43.2721 63.5322 35.0772 63.5473 34.9949C63.5816 34.809 63.757 34.6875 63.9469 34.7205C64.1326 34.7555 64.2553 34.9345 64.221 35.1204C64.2059 35.202 62.6845 43.3846 61.8621 48.9509C61.7963 49.3974 61.9567 49.5998 62.0828 49.713C62.9566 50.4964 65.8308 49.9661 66.865 49.6952C67.048 49.6478 67.2351 49.7576 67.2831 49.9401C67.331 50.1232 67.2214 50.3105 67.0384 50.3585C66.78 50.4271 65.2572 50.8099 63.8276 50.8099Z" fill="#FFB38D"/>
<path d="M38.9487 23.9338C38.9487 23.9338 44.1086 6.43396 64.7392 6.43396C86.0441 6.43396 89.8203 25.2743 89.8203 25.2743L38.9487 23.9338Z" fill="#AD3320"/>
<path d="M37.6275 33.7107C37.6275 33.7107 48.2399 29.0047 64.7393 29.0047C81.2387 29.0047 91.5873 33.7107 91.5873 33.7107C91.5873 33.7107 92.6338 27.7878 92.6338 24.8983C92.6338 22.0089 81.0982 16.8378 63.9238 16.8378C46.7493 16.8378 36.2658 21.8566 35.6579 23.5291C35.0514 25.2029 37.6275 33.7107 37.6275 33.7107Z" fill="#D43E20"/>
<path d="M42.1918 29.7422C44.1176 29.3038 42.7168 22.8156 41.0542 23.2999C39.3909 23.7836 40.266 30.1798 42.1918 29.7422Z" fill="#AD3320"/>
<path d="M48.5605 27.8289C50.4863 27.3906 49.0854 20.9024 47.4228 21.386C45.7595 21.871 46.6347 28.2673 48.5605 27.8289Z" fill="#AD3320"/>
<path d="M55.263 26.6147C57.1991 26.2244 55.9586 19.7033 54.2837 20.1464C52.6094 20.5896 53.3276 27.0057 55.263 26.6147Z" fill="#AD3320"/>
<path d="M61.7888 25.4471C63.7434 25.1659 62.8703 18.5851 61.1734 18.9336C59.4765 19.282 59.8336 25.7284 61.7888 25.4471Z" fill="#AD3320"/>
<path d="M86.8289 29.7422C84.9031 29.3038 86.3039 22.8156 87.9672 23.2999C89.6305 23.7836 88.7547 30.1798 86.8289 29.7422Z" fill="#AD3320"/>
<path d="M80.46 27.8289C78.5342 27.3906 79.935 20.9024 81.5977 21.386C83.2616 21.871 82.3858 28.2673 80.46 27.8289Z" fill="#AD3320"/>
<path d="M73.7575 26.6147C71.8215 26.2244 73.0619 19.7033 74.7369 20.1464C76.4112 20.5896 75.6936 27.0057 73.7575 26.6147Z" fill="#AD3320"/>
<path d="M67.2325 25.4471C65.2779 25.1659 66.151 18.5851 67.8479 18.9336C69.5448 19.282 69.187 25.7284 67.2325 25.4471Z" fill="#AD3320"/>
<path d="M85.9168 88.6627L74.225 101.964L66.1175 96.5997L58.7433 101.964L44.7419 88.1757C46.7842 87.5514 48.6895 87.0438 50.2452 86.5841L66.1175 93.9449L80.9138 87.1672C82.4284 87.5994 84.1349 88.0865 85.9168 88.6627Z" fill="white"/>
</svg>
